<svg width="300" height="476" viewBox="0 0 300 476" fill="none" xmlns="http://www.w3.org/2000/svg">
<rect width="300" height="476" fill="white"/>
<rect x="30" y="228" width="240" height="148" rx="10" fill="#C6C5C5"/>
<rect x="30" y="256" width="240" height="37" fill="#A8A8A8"/>
<rect x="30" y="256" width="240" height="37" fill="#A8A8A8"/>
<rect x="30" y="256" width="240" height="37" fill="#A8A8A8"/>
<rect x="30" y="256" width="240" height="37" fill="#A8A8A8"/>
<rect x="30" y="256" width="240" height="37" fill="#A8A8A8"/>
<rect x="30" y="256" width="240" height="37" fill="#A8A8A8"/>
<rect x="30" y="256" width="240" height="37" fill="#A8A8A8"/>
<rect x="30" y="301" width="240" height="5" fill="#A8A8A8"/>
<rect x="30" y="301" width="240" height="5" fill="#A8A8A8"/>
<rect x="30" y="301" width="240" height="5" fill="#A8A8A8"/>
<rect x="30" y="301" width="240" height="5" fill="#A8A8A8"/>
<rect x="30" y="301" width="240" height="5" fill="#A8A8A8"/>
<rect x="30" y="301" width="240" height="5" fill="#A8A8A8"/>
<rect x="30" y="301" width="240" height="5" fill="#A8A8A8"/>
<rect x="30" y="321" width="240" height="5" fill="#A8A8A8"/>
<rect x="30" y="321" width="240" height="5" fill="#A8A8A8"/>
<rect x="30" y="321" width="240" height="5" fill="#A8A8A8"/>
<rect x="30" y="321" width="240" height="5" fill="#A8A8A8"/>
<rect x="30" y="321" width="240" height="5" fill="#A8A8A8"/>
<rect x="30" y="321" width="240" height="5" fill="#A8A8A8"/>
<rect x="30" y="321" width="240" height="5" fill="#A8A8A8"/>
<rect x="30" y="331" width="240" height="5" fill="#A8A8A8"/>
<rect x="30" y="331" width="240" height="5" fill="#A8A8A8"/>
<rect x="30" y="331" width="240" height="5" fill="#A8A8A8"/>
<rect x="30" y="331" width="240" height="5" fill="#A8A8A8"/>
<rect x="30" y="331" width="240" height="5" fill="#A8A8A8"/>
<rect x="30" y="331" width="240" height="5" fill="#A8A8A8"/>
<rect x="30" y="331" width="240" height="5" fill="#A8A8A8"/>
<rect x="30" y="311" width="240" height="5" fill="#A8A8A8"/>
<rect x="30" y="311" width="240" height="5" fill="#A8A8A8"/>
<rect x="30" y="311" width="240" height="5" fill="#A8A8A8"/>
<rect x="30" y="311" width="240" height="5" fill="#A8A8A8"/>
<rect x="30" y="311" width="240" height="5" fill="#A8A8A8"/>
<rect x="30" y="311" width="240" height="5" fill="#A8A8A8"/>
<rect x="30" y="311" width="240" height="5" fill="#A8A8A8"/>
<rect x="30" y="60" width="240" height="148" rx="10" fill="#DCDCDC"/>
<rect x="30" y="60" width="240" height="148" rx="10" fill="#DCDCDC"/>
<rect x="30" y="60" width="240" height="148" rx="10" fill="#DCDCDC"/>
</svg>
