<svg width="630" height="389" viewBox="0 0 630 389" fill="none" xmlns="http://www.w3.org/2000/svg">
<rect x="254" y="100" width="326" height="189" rx="10" fill="#C6C5C5"/>
<rect x="254" y="128" width="326" height="37" fill="#A8A8A8"/>
<rect x="254" y="128" width="326" height="37" fill="#A8A8A8"/>
<rect x="254" y="128" width="326" height="37" fill="#A8A8A8"/>
<rect x="254" y="128" width="326" height="37" fill="#A8A8A8"/>
<rect x="254" y="128" width="326" height="37" fill="#A8A8A8"/>
<rect x="254" y="128" width="326" height="37" fill="#A8A8A8"/>
<rect x="254" y="128" width="326" height="37" fill="#A8A8A8"/>
<rect x="254" y="173" width="326" height="5" fill="#A8A8A8"/>
<rect x="254" y="173" width="326" height="5" fill="#A8A8A8"/>
<rect x="254" y="173" width="326" height="5" fill="#A8A8A8"/>
<rect x="254" y="173" width="326" height="5" fill="#A8A8A8"/>
<rect x="254" y="173" width="326" height="5" fill="#A8A8A8"/>
<rect x="254" y="173" width="326" height="5" fill="#A8A8A8"/>
<rect x="254" y="173" width="326" height="5" fill="#A8A8A8"/>
<rect x="254" y="193" width="326" height="5" fill="#A8A8A8"/>
<rect x="254" y="193" width="326" height="5" fill="#A8A8A8"/>
<rect x="254" y="193" width="326" height="5" fill="#A8A8A8"/>
<rect x="254" y="193" width="326" height="5" fill="#A8A8A8"/>
<rect x="254" y="193" width="326" height="5" fill="#A8A8A8"/>
<rect x="254" y="193" width="326" height="5" fill="#A8A8A8"/>
<rect x="254" y="193" width="326" height="5" fill="#A8A8A8"/>
<rect x="254" y="203" width="326" height="5" fill="#A8A8A8"/>
<rect x="254" y="203" width="326" height="5" fill="#A8A8A8"/>
<rect x="254" y="203" width="326" height="5" fill="#A8A8A8"/>
<rect x="254" y="203" width="326" height="5" fill="#A8A8A8"/>
<rect x="254" y="203" width="326" height="5" fill="#A8A8A8"/>
<rect x="254" y="203" width="326" height="5" fill="#A8A8A8"/>
<rect x="254" y="203" width="326" height="5" fill="#A8A8A8"/>
<rect x="254" y="183" width="326" height="5" fill="#A8A8A8"/>
<rect x="254" y="183" width="326" height="5" fill="#A8A8A8"/>
<rect x="254" y="183" width="326" height="5" fill="#A8A8A8"/>
<rect x="254" y="183" width="326" height="5" fill="#A8A8A8"/>
<rect x="254" y="183" width="326" height="5" fill="#A8A8A8"/>
<rect x="254" y="183" width="326" height="5" fill="#A8A8A8"/>
<rect x="254" y="183" width="326" height="5" fill="#A8A8A8"/>
<rect x="50" y="50" width="358" height="203" rx="10" fill="#DCDCDC"/>
<rect x="50" y="50" width="358" height="203" rx="10" fill="#DCDCDC"/>
<rect x="50" y="50" width="358" height="203" rx="10" fill="#DCDCDC"/>
</svg>
